<svg width="23" height="25" viewBox="0 0 23 25" fill="none" xmlns="http://www.w3.org/2000/svg">
<path d="M8.93254 1.56218C9.1193 1.10062 9.43966 0.705344 9.85255 0.427018C10.2654 0.148692 10.752 0 11.25 0C11.748 0 12.2346 0.148692 12.6475 0.427018C13.0603 0.705344 13.3807 1.10062 13.5675 1.56218C15.4159 2.07048 17.0463 3.17146 18.2083 4.69602C19.3704 6.22058 19.9998 8.08442 19.9999 10.0013V15.8719L22.2898 19.3066C22.4154 19.4948 22.4876 19.7136 22.4985 19.9396C22.5095 20.1656 22.4589 20.3904 22.3522 20.5899C22.2454 20.7894 22.0865 20.9562 21.8923 21.0725C21.6982 21.1887 21.4761 21.2501 21.2498 21.2501H15.5812C15.4307 22.2914 14.91 23.2436 14.1146 23.9323C13.3191 24.6209 12.3022 25 11.25 25C10.1978 25 9.18086 24.6209 8.38542 23.9323C7.58998 23.2436 7.06932 22.2914 6.91882 21.2501H1.25017C1.02387 21.2501 0.801803 21.1887 0.607666 21.0725C0.413529 20.9562 0.254603 20.7894 0.147842 20.5899C0.0410818 20.3904 -0.00950703 20.1656 0.00147229 19.9396C0.0124516 19.7136 0.0845873 19.4948 0.210184 19.3066L2.50015 15.8719V10.0013C2.50015 5.97172 5.2251 2.57708 8.93254 1.56218ZM9.48253 21.2501C9.61163 21.6159 9.851 21.9326 10.1677 22.1567C10.4843 22.3807 10.8627 22.501 11.2506 22.501C11.6385 22.501 12.0169 22.3807 12.3336 22.1567C12.6502 21.9326 12.8896 21.6159 13.0187 21.2501H9.48128H9.48253ZM11.25 3.75195C9.59243 3.75195 8.00274 4.41036 6.83066 5.58234C5.65857 6.75432 5.0001 8.34387 5.0001 10.0013V16.2506C5.00016 16.4975 4.92709 16.7389 4.79011 16.9443L3.58638 18.7504H18.9124L17.7086 16.9443C17.5721 16.7388 17.4995 16.4974 17.4999 16.2506V10.0013C17.4999 8.34387 16.8414 6.75432 15.6693 5.58234C14.4973 4.41036 12.9076 3.75195 11.25 3.75195Z" fill="black"/>
</svg>
