<svg width="26" height="25" viewBox="0 0 26 25" fill="none" xmlns="http://www.w3.org/2000/svg">
<path d="M12.9989 5C11.6952 5.00165 10.4453 5.52028 9.52349 6.44213C8.60164 7.36398 8.08301 8.6138 8.08136 9.9175H10.5814C10.5814 8.58375 11.6664 7.5 12.9989 7.5C14.3314 7.5 15.4164 8.58375 15.4164 9.9175C15.4164 10.665 14.8151 11.2075 13.8964 11.95C13.5962 12.1851 13.308 12.435 13.0326 12.6987C11.7851 13.945 11.7489 15.2687 11.7489 15.4162V16.25H14.2489L14.2476 15.4587C14.2489 15.4387 14.2889 14.9762 14.7989 14.4675C14.9864 14.28 15.2226 14.0925 15.4676 13.895C16.4414 13.1062 17.9151 11.915 17.9151 9.9175C17.9141 8.61382 17.3959 7.3638 16.4742 6.44184C15.5524 5.51988 14.3025 5.00132 12.9989 5ZM11.7489 17.5H14.2489V20H11.7489V17.5Z" fill="black"/>
<path d="M13 0C6.1075 0 0.5 5.6075 0.5 12.5C0.5 19.3925 6.1075 25 13 25C19.8925 25 25.5 19.3925 25.5 12.5C25.5 5.6075 19.8925 0 13 0ZM13 22.5C7.48625 22.5 3 18.0138 3 12.5C3 6.98625 7.48625 2.5 13 2.5C18.5138 2.5 23 6.98625 23 12.5C23 18.0138 18.5138 22.5 13 22.5Z" fill="black"/>
</svg>
